<svg xmlns="http://www.w3.org/2000/svg" width="23.267" height="21.952" viewBox="0 0 23.267 21.952">
  <g id="Group_2166" data-name="Group 2166" transform="translate(-397.366 -580.595)">
    <g id="Polygon_1" data-name="Polygon 1" transform="translate(395 579.143)" fill="rgba(44,117,255,0.2)">
      <path d="M 16.63522911071777 22.40446090698242 C 15.85044956207275 22.404541015625 15.13831996917725 22.0281925201416 14.68142986297607 21.37190246582031 L 14.32909965515137 20.86581230163574 C 14.22498989105225 20.71626091003418 14.07822036743164 20.69393157958984 14 20.69393157958984 C 13.92177963256836 20.69393157958984 13.77501010894775 20.71626091003418 13.67088985443115 20.86582183837891 L 13.31857967376709 21.37190246582031 C 12.86176013946533 22.02807235717773 12.14968013763428 22.40442085266113 11.36491966247559 22.40446090698242 C 10.69406032562256 22.40449142456055 10.04683017730713 22.12699127197266 9.589170455932617 21.64310264587402 C 9.140049934387207 21.16824150085449 8.913339614868164 20.53722190856934 8.950779914855957 19.86628150939941 L 8.970720291137695 19.50934219360352 C 8.978690147399902 19.36652183532715 8.917189598083496 19.26974105834961 8.864199638366699 19.21371078491211 C 8.786609649658203 19.13167190551758 8.680379867553711 19.08462142944336 8.572750091552734 19.08462142944336 C 8.527529716491699 19.08462142944336 8.481249809265137 19.09298133850098 8.435179710388184 19.10947227478027 L 8.042530059814453 19.25004196166992 C 7.770880222320557 19.34728240966797 7.492090225219727 19.39659118652344 7.213890075683594 19.39660263061523 C 6.289130210876465 19.3966121673584 5.437019824981689 18.83899116516113 5.043039798736572 17.97600173950195 C 4.650959968566895 17.1171817779541 4.795080184936523 16.13652229309082 5.419149875640869 15.4167013168335 C 5.546979904174805 15.26926136016846 5.523799896240234 15.11326217651367 5.498600006103516 15.03338146209717 C 5.473400115966797 14.95351123809814 5.402870178222656 14.81243133544922 5.213580131530762 14.7650318145752 L 5.184209823608398 14.75767135620117 C 4.096889972686768 14.48539161682129 3.366389989852905 13.54940128326416 3.366389989852905 12.4285717010498 C 3.366389989852905 11.30774211883545 4.096889972686768 10.37175178527832 5.184140205383301 10.0994815826416 L 5.213650226593018 10.09210205078125 C 5.402870178222656 10.04471206665039 5.473400115966797 9.903641700744629 5.498600006103516 9.823761940002441 C 5.523799896240234 9.743891716003418 5.546979904174805 9.587871551513672 5.419159889221191 9.440442085266113 C 4.795129776000977 8.720662117004395 4.65103006362915 7.740021705627441 5.043099880218506 6.88120174407959 C 5.437079906463623 6.018181800842285 6.289159774780273 5.460541725158691 7.213880062103271 5.460541725158691 C 7.492070198059082 5.460541725158691 7.770870208740234 5.509851932525635 8.042519569396973 5.607101917266846 L 8.435190200805664 5.747671604156494 C 8.481249809265137 5.764161586761475 8.527529716491699 5.772521495819092 8.572759628295898 5.772521495819092 C 8.680419921875 5.772521495819092 8.786660194396973 5.725481510162354 8.864230155944824 5.64346170425415 C 8.917209625244141 5.587441921234131 8.978690147399902 5.490671634674072 8.970709800720215 5.34779167175293 L 8.950790405273438 4.990871906280518 C 8.913350105285645 4.319991588592529 9.140049934387207 3.689011812210083 9.589150428771973 3.214141607284546 C 10.04681015014648 2.730221748352051 10.69404029846191 2.45268177986145 11.36487007141113 2.45268177986145 C 12.14964008331299 2.45268177986145 12.86174011230469 2.829031705856323 13.31857013702393 3.485241651535034 L 13.67090034484863 3.991321802139282 C 13.77501964569092 4.140881538391113 13.92179012298584 4.163211822509766 14.00000953674316 4.163211822509766 C 14.0782299041748 4.163211822509766 14.22498989105225 4.140881538391113 14.32909965515137 3.991331815719604 L 14.68142986297607 3.485251665115356 C 15.13825988769531 2.829041719436646 15.85035037994385 2.452691793441772 16.6351203918457 2.452691793441772 C 17.30599975585938 2.452691793441772 17.9532299041748 2.730221748352051 18.41087913513184 3.21412181854248 C 18.85996055603027 3.688971757888794 19.08666038513184 4.319971561431885 19.04920959472656 4.99088191986084 L 19.02928924560547 5.347781658172607 C 19.02131080627441 5.490621566772461 19.08280944824219 5.587401866912842 19.13579940795898 5.643431663513184 C 19.2133903503418 5.725471496582031 19.31961059570312 5.772521495819092 19.4272403717041 5.772521495819092 C 19.47246932983398 5.772521495819092 19.51874923706055 5.764161586761475 19.5648193359375 5.747671604156494 L 19.95749092102051 5.607101917266846 C 20.22913932800293 5.509851932525635 20.50793075561523 5.460551738739014 20.78611946105957 5.460551738739014 C 21.71088027954102 5.460551738739014 22.56299018859863 6.018171787261963 22.95697021484375 6.881171703338623 C 23.34902954101562 7.739981651306152 23.20491027832031 8.72063159942627 22.58085060119629 9.440442085266113 C 22.4530200958252 9.587882041931152 22.47620010375977 9.743891716003418 22.50139999389648 9.823771476745605 C 22.5265998840332 9.903641700744629 22.59712982177734 10.04471206665039 22.78640937805176 10.09211158752441 L 22.8157901763916 10.09947204589844 C 23.90312004089355 10.37176132202148 24.63361930847168 11.30775165557861 24.63360977172852 12.42858123779297 C 24.63360977172852 13.54941177368164 23.90311050415039 14.48539161682129 22.81586074829102 14.75766181945801 L 22.78635025024414 14.76504135131836 C 22.59712982177734 14.81243133544922 22.5265998840332 14.95351123809814 22.50139999389648 15.03338146209717 C 22.47620010375977 15.11326217651367 22.4530200958252 15.26927185058594 22.58083915710449 15.4167013168335 C 23.20480918884277 16.13639259338379 23.34894943237305 17.1169319152832 22.95700073242188 17.97567176818848 C 22.56310081481934 18.83870124816895 21.71104049682617 19.39645195007324 20.78628921508789 19.39660263061523 C 20.50811004638672 19.39664077758789 20.2292594909668 19.34733200073242 19.95747947692871 19.25004196166992 L 19.56484031677246 19.1094913482666 C 19.51873970031738 19.09298133850098 19.47245979309082 19.08462142944336 19.42723083496094 19.08462142944336 C 19.31957054138184 19.08462142944336 19.21334075927734 19.13166236877441 19.13577079772949 19.21368217468262 C 19.08279037475586 19.26970100402832 19.02131080627441 19.3664722442627 19.02928924560547 19.50936126708984 L 19.04920959472656 19.86625099182129 C 19.08666038513184 20.5370922088623 18.8599796295166 21.16803169250488 18.41094970703125 21.64287185668945 C 17.95331954956055 22.12680244445801 17.30608940124512 22.40439224243164 16.63522911071777 22.40446090698242 Z" stroke="none"/>
      <path d="M 11.3648738861084 3.452678680419922 C 10.62424087524414 3.452754974365234 9.898952484130859 4.034229278564453 9.949239730834961 4.935142517089844 L 9.969160079956055 5.292051315307617 C 10.02503967285156 6.293071746826172 9.042047500610352 7.027074813842773 8.098140716552734 6.68916130065918 L 7.705480575561523 6.548591613769531 C 6.348365783691406 6.062759399414062 5.230491638183594 7.696262359619141 6.17473030090332 8.785371780395508 C 6.859079360961914 9.574711799621582 6.46990966796875 10.80839157104492 5.456499099731445 11.06216144561768 L 5.427059173583984 11.06953144073486 C 4.01283073425293 11.42368125915527 4.01283073425293 13.43346214294434 5.427059173583984 13.78761196136475 L 5.456499099731445 13.79498195648193 C 6.46990966796875 14.04876136779785 6.859079360961914 15.28243160247803 6.17473030090332 16.0717716217041 L 6.174720764160156 16.0717716217041 C 5.230478286743164 17.16088104248047 6.348379135131836 18.79437828063965 7.705469131469727 18.30855178833008 L 8.098129272460938 18.16798210144043 C 9.042064666748047 17.83007049560547 10.0250301361084 18.56408309936523 9.969160079956055 19.56509208679199 L 9.949230194091797 19.92200088500977 C 9.87053108215332 21.33193206787109 11.69104194641113 21.9594841003418 12.49787044525146 20.80055236816406 L 12.85019016265869 20.29446220397949 C 13.40762996673584 19.49375152587891 14.59237003326416 19.49375152587891 15.14980983734131 20.29446220397949 L 15.50212955474854 20.80055236816406 C 16.3089485168457 21.95948028564453 18.12945938110352 21.33193206787109 18.0507698059082 19.92200088500977 L 18.03083992004395 19.56509208679199 C 17.9749698638916 18.56407165527344 18.95794677734375 17.83007049560547 19.90185928344727 18.16799163818359 L 20.29451942443848 18.30855178833008 C 21.6516227722168 18.79438018798828 22.7695198059082 17.16088104248047 21.82527923583984 16.0717716217041 L 21.82526969909668 16.0717716217041 C 21.14092063903809 15.28243160247803 21.53009033203125 14.04876136779785 22.54349899291992 13.79498195648193 L 22.57294082641602 13.78761196136475 C 23.9871711730957 13.43346214294434 23.9871711730957 11.42369174957275 22.57294082641602 11.06953144073486 L 22.54349899291992 11.06216144561768 C 21.53009033203125 10.80839157104492 21.14092063903809 9.574711799621582 21.82527923583984 8.785371780395508 C 22.76951026916504 7.696271896362305 21.65161895751953 6.062768936157227 20.29451942443848 6.548591613769531 L 19.90185928344727 6.68916130065918 C 18.95795440673828 7.027074813842773 17.97497177124023 6.293073654174805 18.03083992004395 5.292051315307617 L 18.05076026916504 4.935152053833008 C 18.12945938110352 3.52522087097168 16.30895233154297 2.897666931152344 15.50212955474854 4.056602478027344 L 15.14980983734131 4.562681198120117 C 14.59237957000732 5.363393783569336 13.407639503479 5.363393783569336 12.85019969940186 4.562681198120117 L 12.49787044525146 4.056591033935547 C 12.2065896987915 3.638191223144531 11.7833309173584 3.45263671875 11.3648738861084 3.452678680419922 M 11.3646297454834 1.452682495117188 C 11.36467933654785 1.452682495117188 11.36467933654785 1.452682495117188 11.36467933654785 1.452682495117188 C 12.40416240692139 1.452560424804688 13.35234355926514 1.914031982421875 14.0000057220459 2.726945877075195 C 14.64758396148682 1.914142608642578 15.59565258026123 1.452692031860352 16.63512992858887 1.452692031860352 C 17.57968139648438 1.452692031860352 18.49172973632812 1.844261169433594 19.13742065429688 2.527002334594727 C 19.66279983520508 3.082529067993164 19.97474098205566 3.785188674926758 20.0402660369873 4.543674468994141 C 20.28655052185059 4.488418579101562 20.53607559204102 4.460552215576172 20.78610992431641 4.460552215576172 C 22.1013298034668 4.460540771484375 23.31052017211914 5.247682571411133 23.86664962768555 6.46588134765625 C 24.3061408996582 7.428565979003906 24.27207946777344 8.497995376586914 23.80345153808594 9.407200813293457 C 24.92326354980469 9.977317810058594 25.63361740112305 11.11304378509521 25.63360977172852 12.42859172821045 C 25.63360977172852 13.7441234588623 24.92316818237305 14.87988567352295 23.8034496307373 15.44996929168701 C 24.27206039428711 16.35915374755859 24.30609130859375 17.42852973937988 23.86660003662109 18.39122200012207 C 23.31047058105469 19.60944175720215 22.10129928588867 20.39660263061523 20.78611946105957 20.39660263061523 C 20.53608703613281 20.39660263061523 20.28654670715332 20.36873054504395 20.04026794433594 20.3134765625 C 19.97473335266113 21.07197189331055 19.66278457641602 21.77458572387695 19.13739013671875 22.33012199401855 C 18.49168014526367 23.01288223266602 17.57963943481445 23.40446090698242 16.63512992858887 23.40446090698242 C 15.59565258026123 23.40446090698242 14.64757633209229 22.94300079345703 13.99999809265137 22.13019943237305 C 13.3524112701416 22.94301605224609 12.40434741973877 23.40446090698242 11.36487007141113 23.40446090698242 C 10.42032051086426 23.40446090698242 9.508260726928711 23.01289176940918 8.862569808959961 22.33015251159668 C 8.337182998657227 21.77462387084961 8.025245666503906 21.07196044921875 7.959722518920898 20.31347274780273 C 7.713434219360352 20.36873245239258 7.463897705078125 20.39660263061523 7.213869094848633 20.39660263061523 C 5.898649215698242 20.39660263061523 4.689470291137695 19.60946273803711 4.133340835571289 18.39127159118652 C 3.693857192993164 17.42858695983887 3.727920532226562 16.35915374755859 4.196550369262695 15.44995021820068 C 3.076744079589844 14.87984371185303 2.366390228271484 13.74411964416504 2.366390228271484 12.4285717010498 C 2.366390228271484 11.11302375793457 3.076833724975586 9.977253913879395 4.196556091308594 9.407170295715332 C 3.72807502746582 8.498117446899414 3.693958282470703 7.428791046142578 4.133279800415039 6.466251373291016 C 4.689300537109375 5.248041152954102 5.898380279541016 4.460752487182617 7.213560104370117 4.460540771484375 C 7.463699340820312 4.46051025390625 7.713342666625977 4.488378524780273 7.959737777709961 4.543663024902344 C 8.02525520324707 3.785268783569336 8.337148666381836 3.082710266113281 8.862470626831055 2.527191162109375 C 9.508140563964844 1.844411849975586 10.4201602935791 1.45277214050293 11.36467933654785 1.452682495117188 L 11.3646297454834 1.452682495117188 Z" stroke="none" fill="#2c75ff"/>
    </g>
    <g id="Icon_feather-check-circle" data-name="Icon feather-check-circle" transform="translate(392.35 583.146)">
      <path id="Path_401" data-name="Path 401" d="M19.8,6l-4.847,4.852L13.5,9.4" fill="none" stroke="#2c75ff" stroke-linecap="round" stroke-linejoin="round" stroke-width="2"/>
    </g>
  </g>
</svg>
